<?xml version="1.0" encoding="UTF-8" standalone="no"?>
<!-- Created with Inkscape (http://www.inkscape.org/) -->

<svg
   width="95.473518mm"
   height="48.520977mm"
   viewBox="0 0 95.473518 48.520977"
   version="1.1"
   id="svg1"
   xml:space="preserve"
   inkscape:version="1.4.3 (0d15f75042, 2025-12-25)"
   sodipodi:docname="A-PillarCrossSection2.svg"
   xmlns:inkscape="http://www.inkscape.org/namespaces/inkscape"
   xmlns:sodipodi="http://sodipodi.sourceforge.net/DTD/sodipodi-0.dtd"
   xmlns="http://www.w3.org/2000/svg"
   xmlns:svg="http://www.w3.org/2000/svg"><sodipodi:namedview
     id="namedview1"
     pagecolor="#505050"
     bordercolor="#eeeeee"
     borderopacity="1"
     inkscape:showpageshadow="0"
     inkscape:pageopacity="0"
     inkscape:pagecheckerboard="0"
     inkscape:deskcolor="#505050"
     inkscape:document-units="mm"
     inkscape:zoom="0.49850354"
     inkscape:cx="-427.27881"
     inkscape:cy="491.47094"
     inkscape:window-width="1267"
     inkscape:window-height="1404"
     inkscape:window-x="3845"
     inkscape:window-y="1446"
     inkscape:window-maximized="0"
     inkscape:current-layer="layer1"><inkscape:page
       x="0"
       y="0"
       width="95.473518"
       height="48.520977"
       id="page1"
       margin="0"
       bleed="0" /><inkscape:page
       x="-68.242104"
       y="0.065059595"
       width="214.37599"
       height="278.38403"
       id="page2"
       margin="0"
       bleed="0" /></sodipodi:namedview><defs
     id="defs1" /><g
     inkscape:label="Layer 1"
     inkscape:groupmode="layer"
     id="layer1"
     transform="translate(-288.2421,0.06505959)"><path
       style="fill:none;stroke:#000000;stroke-width:0.264583px;stroke-linecap:butt;stroke-linejoin:miter;stroke-opacity:1"
       d="m 383.60043,0 -1.81237,3.2088023 -1.75297,2.7631353 -1.66384,2.7334241 -1.96093,2.6145793 -1.63409,2.317469 -1.90154,2.674001 -1.9015,2.852269 -1.6341,2.228335 -2.02035,2.495735 -1.66384,1.931224 -1.78265,1.931224 -1.75297,1.455843 -1.78232,1.612583 -1.5476,1.187905 -1.77768,1.083336 -1.76096,1.133531 -1.64801,0.882563 -1.89479,0.890931 -1.7191,0.957853 -1.72331,0.706887 -1.86553,0.794726 -1.72746,0.702704 -1.79859,0.694341 -1.27156,0.57722 -2.09558,0.581406 -1.47232,0.577221 -1.70657,0.627414 -1.97426,0.627417 -1.70239,0.518663 -1.28412,0.443373 -2.14993,0.639963 -1.78604,0.568857 -1.52673,0.547942 -2.09973,0.460105 -1.64383,0.330438 -1.6982,0.255148 -1.85299,0.623231 -1.58943,0.317892 -1.32596,0.07529 -1.72328,0.372266 -2.02446,0.200771 -5.91026,0.125484 -1.40539,-0.121301 -1.00806,-0.401545 -1.47651,-0.430823 -2.2085,-1.137714 -1.40542,-1.405408 -1.89478,-1.777678 -1.52673,-2.032825 -1.39284,-3.680833 c -0.0311,-2.48e-4 0,0 -1.45984,-5.918615 l -1.3357,-9.455314 -1.26253,-9.077413 -1.29075,-12.52703802 -0.003,-0.003305 v 0"
       id="path2"
       sodipodi:nodetypes="ccccccccccccccccccccccccccccccccccccccccccccccccccccccccc" /></g><g
     id="g1"
     inkscape:groupmode="layer"
     inkscape:label="1"
     transform="matrix(0.26458333,0,0,0.26458335,-68.242093,0.06505959)" /></svg>
